<svg class="svg-icon" style="width: 1em; height: 1em;vertical-align: middle;fill: currentColor;overflow: hidden;" viewBox="0 0 1024 1024" version="1.1" xmlns="http://www.w3.org/2000/svg"><path d="M558.648889 42.097778c17.066667 0 30.72 13.653333 30.72 30.72V978.488889c0 17.066667-13.653333 30.72-30.72 30.72H418.702222c-17.066667 0-30.72-13.653333-30.72-30.72V72.817778c0-17.066667 13.653333-30.72 30.72-30.72h139.946667m0-9.102222H418.702222c-21.617778 0-39.822222 18.204444-39.822222 39.822222V978.488889c0 21.617778 18.204444 39.822222 39.822222 39.822222h139.946667c21.617778 0 39.822222-18.204444 39.822222-39.822222V72.817778c0-21.617778-17.066667-39.822222-39.822222-39.822222z"  /><path d="M547.271111 77.368889h51.2v9.102222h-51.2zM547.271111 98.986667h51.2v9.102222h-51.2zM547.271111 119.466667h51.2v9.102222h-51.2zM547.271111 141.084444h51.2v9.102223h-51.2zM521.102222 161.564444h77.368889v9.102223h-77.368889zM547.271111 183.182222h51.2v9.102222h-51.2zM547.271111 204.8h51.2v9.102222h-51.2zM547.271111 225.28h51.2v9.102222h-51.2zM547.271111 246.897778h51.2v9.102222h-51.2zM521.102222 268.515556h77.368889v9.102222h-77.368889zM547.271111 288.995556h51.2v9.102222h-51.2zM547.271111 310.613333h51.2v9.102223h-51.2zM547.271111 331.093333h51.2v9.102223h-51.2zM547.271111 352.711111h51.2v9.102222h-51.2zM521.102222 374.328889h77.368889v9.102222h-77.368889zM547.271111 394.808889h51.2v9.102222h-51.2zM547.271111 416.426667h51.2v9.102222h-51.2zM547.271111 436.906667h51.2v9.102222h-51.2zM547.271111 458.524444h51.2v9.102223h-51.2zM521.102222 480.142222h77.368889v9.102222h-77.368889zM547.271111 500.622222h51.2v9.102222h-51.2zM547.271111 522.24h51.2v9.102222h-51.2zM547.271111 542.72h51.2v9.102222h-51.2zM547.271111 564.337778h51.2v9.102222h-51.2zM521.102222 585.955556h77.368889v9.102222h-77.368889zM547.271111 606.435556h51.2v9.102222h-51.2zM547.271111 628.053333h51.2v9.102223h-51.2zM547.271111 648.533333h51.2v9.102223h-51.2zM547.271111 670.151111h51.2v9.102222h-51.2zM521.102222 691.768889h77.368889v9.102222h-77.368889zM547.271111 712.248889h51.2v9.102222h-51.2zM547.271111 733.866667h51.2v9.102222h-51.2zM547.271111 754.346667h51.2v9.102222h-51.2zM547.271111 775.964444h51.2v9.102223h-51.2zM521.102222 797.582222h77.368889v9.102222h-77.368889zM547.271111 818.062222h51.2v9.102222h-51.2zM547.271111 839.68h51.2v9.102222h-51.2zM547.271111 861.297778h51.2v9.102222h-51.2zM547.271111 881.777778h51.2v9.102222h-51.2zM521.102222 903.395556h77.368889v9.102222h-77.368889zM547.271111 923.875556h51.2v9.102222h-51.2zM547.271111 945.493333h51.2v9.102223h-51.2zM547.271111 967.111111h51.2v9.102222h-51.2z"  /></svg>