<svg width="576" height="448" viewBox="0 0 576 448" fill="none" xmlns="http://www.w3.org/2000/svg">
<path d="M0 64H576C576 28.7 547.3 0 512 0H64C28.7 0 0 28.7 0 64ZM0 96V384C0 419.3 28.7 448 64 448H512C547.3 448 576 419.3 576 384V96H0ZM64 373.3C64 343.8 87.9 320 117.3 320H234.6C264.1 320 287.9 343.9 287.9 373.3C287.9 379.2 283.1 384 277.2 384H74.7C68.8 384 64 379.2 64 373.3ZM176 160C192.974 160 209.253 166.743 221.255 178.745C233.257 190.747 240 207.026 240 224C240 240.974 233.257 257.252 221.255 269.255C209.253 281.257 192.974 288 176 288C159.026 288 142.747 281.257 130.745 269.255C118.743 257.252 112 240.974 112 224C112 207.026 118.743 190.747 130.745 178.745C142.747 166.743 159.026 160 176 160ZM352 176C352 167.2 359.2 160 368 160H496C504.8 160 512 167.2 512 176C512 184.8 504.8 192 496 192H368C359.2 192 352 184.8 352 176ZM352 240C352 231.2 359.2 224 368 224H496C504.8 224 512 231.2 512 240C512 248.8 504.8 256 496 256H368C359.2 256 352 248.8 352 240ZM352 304C352 295.2 359.2 288 368 288H496C504.8 288 512 295.2 512 304C512 312.8 504.8 320 496 320H368C359.2 320 352 312.8 352 304Z" fill="#009AA9"/>
</svg>
