<svg width="528" height="512" viewBox="0 0 528 512" fill="none" xmlns="http://www.w3.org/2000/svg">
<path d="M110.4 21.8625C116 38.6625 106.9 56.7625 90.2 62.3625L64 71.0625V191.962C64 244.962 107 287.962 160 287.962C213 287.962 256 244.962 256 191.962V71.0625L229.9 62.3625C213.1 56.7625 204.1 38.6625 209.7 21.8625C215.3 5.06246 233.4 -3.93754 250.2 1.66246L276.3 10.3625C302.4 19.0625 320 43.4625 320 71.0625V191.962C320 269.162 265.4 333.562 192.7 348.662C199 404.562 246.4 447.962 304 447.962C365.9 447.962 416 397.862 416 335.962V265.262C387.7 252.962 368 224.762 368 191.962C368 147.762 403.8 111.962 448 111.962C492.2 111.962 528 147.762 528 191.962C528 224.762 508.3 252.962 480 265.262V335.962C480 433.162 401.2 511.962 304 511.962C211.1 511.962 135.1 440.062 128.5 348.862C55.2 334.162 0 269.562 0 191.962V71.0625C0 43.5625 17.6 19.0625 43.8 10.3625L69.9 1.66246C86.7 -3.93754 104.8 5.16246 110.4 21.8625ZM448 223.962C456.487 223.962 464.626 220.591 470.627 214.59C476.629 208.589 480 200.449 480 191.962C480 183.476 476.629 175.336 470.627 169.335C464.626 163.334 456.487 159.962 448 159.962C439.513 159.962 431.374 163.334 425.373 169.335C419.371 175.336 416 183.476 416 191.962C416 200.449 419.371 208.589 425.373 214.59C431.374 220.591 439.513 223.962 448 223.962Z" fill="#009AA9"/>
</svg>
